<svg version="1.1" id = "Layer_1" xmlns = "http://www.w3.org/2000/svg" xmlns:xlink = "http://www.w3.org/1999/xlink" x="0px" y="0px" width="1000px" height="1000px" viewBox="0 0 1000 1000" enable-background="new 0 0 1000 1000" xml:space="preserve">
<polygon fill="#8dd3c7" points="500.000000,866.025404 531.250000,811.898816 468.750000,811.898816"/>
<polygon fill="#8dd3c7" points="468.750000,811.898816 500.000000,757.772228 437.500000,757.772228"/>
<polygon fill="#8dd3c7" points="531.250000,811.898816 562.500000,757.772228 500.000000,757.772228"/>
<polygon fill="#ffffb3" points="500.000000,757.772228 468.750000,811.898816 531.250000,811.898816"/>
<polygon fill="#8dd3c7" points="437.500000,757.772228 468.750000,703.645641 406.250000,703.645641"/>
<polygon fill="#8dd3c7" points="406.250000,703.645641 437.500000,649.519053 375.000000,649.519053"/>
<polygon fill="#8dd3c7" points="468.750000,703.645641 500.000000,649.519053 437.500000,649.519053"/>
<polygon fill="#ffffb3" points="437.500000,649.519053 406.250000,703.645641 468.750000,703.645641"/>
<polygon fill="#8dd3c7" points="562.500000,757.772228 593.750000,703.645641 531.250000,703.645641"/>
<polygon fill="#8dd3c7" points="531.250000,703.645641 562.500000,649.519053 500.000000,649.519053"/>
<polygon fill="#8dd3c7" points="593.750000,703.645641 625.000000,649.519053 562.500000,649.519053"/>
<polygon fill="#ffffb3" points="562.500000,649.519053 531.250000,703.645641 593.750000,703.645641"/>
<polygon fill="#ffffb3" points="500.000000,649.519053 468.750000,703.645641 531.250000,703.645641"/>
<polygon fill="#ffffb3" points="531.250000,703.645641 500.000000,757.772228 562.500000,757.772228"/>
<polygon fill="#ffffb3" points="468.750000,703.645641 437.500000,757.772228 500.000000,757.772228"/>
<polygon fill="#bebada" points="500.000000,757.772228 531.250000,703.645641 468.750000,703.645641"/>
<polygon fill="#8dd3c7" points="375.000000,649.519053 406.250000,595.392465 343.750000,595.392465"/>
<polygon fill="#8dd3c7" points="343.750000,595.392465 375.000000,541.265877 312.500000,541.265877"/>
<polygon fill="#8dd3c7" points="406.250000,595.392465 437.500000,541.265877 375.000000,541.265877"/>
<polygon fill="#ffffb3" points="375.000000,541.265877 343.750000,595.392465 406.250000,595.392465"/>
<polygon fill="#8dd3c7" points="312.500000,541.265877 343.750000,487.139290 281.250000,487.139290"/>
<polygon fill="#8dd3c7" points="281.250000,487.139290 312.500000,433.012702 250.000000,433.012702"/>
<polygon fill="#8dd3c7" points="343.750000,487.139290 375.000000,433.012702 312.500000,433.012702"/>
<polygon fill="#ffffb3" points="312.500000,433.012702 281.250000,487.139290 343.750000,487.139290"/>
<polygon fill="#8dd3c7" points="437.500000,541.265877 468.750000,487.139290 406.250000,487.139290"/>
<polygon fill="#8dd3c7" points="406.250000,487.139290 437.500000,433.012702 375.000000,433.012702"/>
<polygon fill="#8dd3c7" points="468.750000,487.139290 500.000000,433.012702 437.500000,433.012702"/>
<polygon fill="#ffffb3" points="437.500000,433.012702 406.250000,487.139290 468.750000,487.139290"/>
<polygon fill="#ffffb3" points="375.000000,433.012702 343.750000,487.139290 406.250000,487.139290"/>
<polygon fill="#ffffb3" points="406.250000,487.139290 375.000000,541.265877 437.500000,541.265877"/>
<polygon fill="#ffffb3" points="343.750000,487.139290 312.500000,541.265877 375.000000,541.265877"/>
<polygon fill="#bebada" points="375.000000,541.265877 406.250000,487.139290 343.750000,487.139290"/>
<polygon fill="#8dd3c7" points="625.000000,649.519053 656.250000,595.392465 593.750000,595.392465"/>
<polygon fill="#8dd3c7" points="593.750000,595.392465 625.000000,541.265877 562.500000,541.265877"/>
<polygon fill="#8dd3c7" points="656.250000,595.392465 687.500000,541.265877 625.000000,541.265877"/>
<polygon fill="#ffffb3" points="625.000000,541.265877 593.750000,595.392465 656.250000,595.392465"/>
<polygon fill="#8dd3c7" points="562.500000,541.265877 593.750000,487.139290 531.250000,487.139290"/>
<polygon fill="#8dd3c7" points="531.250000,487.139290 562.500000,433.012702 500.000000,433.012702"/>
<polygon fill="#8dd3c7" points="593.750000,487.139290 625.000000,433.012702 562.500000,433.012702"/>
<polygon fill="#ffffb3" points="562.500000,433.012702 531.250000,487.139290 593.750000,487.139290"/>
<polygon fill="#8dd3c7" points="687.500000,541.265877 718.750000,487.139290 656.250000,487.139290"/>
<polygon fill="#8dd3c7" points="656.250000,487.139290 687.500000,433.012702 625.000000,433.012702"/>
<polygon fill="#8dd3c7" points="718.750000,487.139290 750.000000,433.012702 687.500000,433.012702"/>
<polygon fill="#ffffb3" points="687.500000,433.012702 656.250000,487.139290 718.750000,487.139290"/>
<polygon fill="#ffffb3" points="625.000000,433.012702 593.750000,487.139290 656.250000,487.139290"/>
<polygon fill="#ffffb3" points="656.250000,487.139290 625.000000,541.265877 687.500000,541.265877"/>
<polygon fill="#ffffb3" points="593.750000,487.139290 562.500000,541.265877 625.000000,541.265877"/>
<polygon fill="#bebada" points="625.000000,541.265877 656.250000,487.139290 593.750000,487.139290"/>
<polygon fill="#ffffb3" points="500.000000,433.012702 468.750000,487.139290 531.250000,487.139290"/>
<polygon fill="#ffffb3" points="531.250000,487.139290 500.000000,541.265877 562.500000,541.265877"/>
<polygon fill="#ffffb3" points="468.750000,487.139290 437.500000,541.265877 500.000000,541.265877"/>
<polygon fill="#bebada" points="500.000000,541.265877 531.250000,487.139290 468.750000,487.139290"/>
<polygon fill="#ffffb3" points="562.500000,541.265877 531.250000,595.392465 593.750000,595.392465"/>
<polygon fill="#ffffb3" points="593.750000,595.392465 562.500000,649.519053 625.000000,649.519053"/>
<polygon fill="#ffffb3" points="531.250000,595.392465 500.000000,649.519053 562.500000,649.519053"/>
<polygon fill="#bebada" points="562.500000,649.519053 593.750000,595.392465 531.250000,595.392465"/>
<polygon fill="#ffffb3" points="437.500000,541.265877 406.250000,595.392465 468.750000,595.392465"/>
<polygon fill="#ffffb3" points="468.750000,595.392465 437.500000,649.519053 500.000000,649.519053"/>
<polygon fill="#ffffb3" points="406.250000,595.392465 375.000000,649.519053 437.500000,649.519053"/>
<polygon fill="#bebada" points="437.500000,649.519053 468.750000,595.392465 406.250000,595.392465"/>
<polygon fill="#bebada" points="500.000000,649.519053 531.250000,595.392465 468.750000,595.392465"/>
<polygon fill="#bebada" points="468.750000,595.392465 500.000000,541.265877 437.500000,541.265877"/>
<polygon fill="#bebada" points="531.250000,595.392465 562.500000,541.265877 500.000000,541.265877"/>
<polygon fill="#fb8072" points="500.000000,541.265877 468.750000,595.392465 531.250000,595.392465"/>
<polygon fill="#8dd3c7" points="250.000000,433.012702 281.250000,378.886114 218.750000,378.886114"/>
<polygon fill="#8dd3c7" points="218.750000,378.886114 250.000000,324.759526 187.500000,324.759526"/>
<polygon fill="#8dd3c7" points="281.250000,378.886114 312.500000,324.759526 250.000000,324.759526"/>
<polygon fill="#ffffb3" points="250.000000,324.759526 218.750000,378.886114 281.250000,378.886114"/>
<polygon fill="#8dd3c7" points="187.500000,324.759526 218.750000,270.632939 156.250000,270.632939"/>
<polygon fill="#8dd3c7" points="156.250000,270.632939 187.500000,216.506351 125.000000,216.506351"/>
<polygon fill="#8dd3c7" points="218.750000,270.632939 250.000000,216.506351 187.500000,216.506351"/>
<polygon fill="#ffffb3" points="187.500000,216.506351 156.250000,270.632939 218.750000,270.632939"/>
<polygon fill="#8dd3c7" points="312.500000,324.759526 343.750000,270.632939 281.250000,270.632939"/>
<polygon fill="#8dd3c7" points="281.250000,270.632939 312.500000,216.506351 250.000000,216.506351"/>
<polygon fill="#8dd3c7" points="343.750000,270.632939 375.000000,216.506351 312.500000,216.506351"/>
<polygon fill="#ffffb3" points="312.500000,216.506351 281.250000,270.632939 343.750000,270.632939"/>
<polygon fill="#ffffb3" points="250.000000,216.506351 218.750000,270.632939 281.250000,270.632939"/>
<polygon fill="#ffffb3" points="281.250000,270.632939 250.000000,324.759526 312.500000,324.759526"/>
<polygon fill="#ffffb3" points="218.750000,270.632939 187.500000,324.759526 250.000000,324.759526"/>
<polygon fill="#bebada" points="250.000000,324.759526 281.250000,270.632939 218.750000,270.632939"/>
<polygon fill="#8dd3c7" points="125.000000,216.506351 156.250000,162.379763 93.750000,162.379763"/>
<polygon fill="#8dd3c7" points="93.750000,162.379763 125.000000,108.253175 62.500000,108.253175"/>
<polygon fill="#8dd3c7" points="156.250000,162.379763 187.500000,108.253175 125.000000,108.253175"/>
<polygon fill="#ffffb3" points="125.000000,108.253175 93.750000,162.379763 156.250000,162.379763"/>
<polygon fill="#8dd3c7" points="62.500000,108.253175 93.750000,54.126588 31.250000,54.126588"/>
<polygon fill="#8dd3c7" points="31.250000,54.126588 62.500000,0.000000 0.000000,0.000000"/>
<polygon fill="#8dd3c7" points="93.750000,54.126588 125.000000,0.000000 62.500000,0.000000"/>
<polygon fill="#ffffb3" points="62.500000,0.000000 31.250000,54.126588 93.750000,54.126588"/>
<polygon fill="#8dd3c7" points="187.500000,108.253175 218.750000,54.126588 156.250000,54.126588"/>
<polygon fill="#8dd3c7" points="156.250000,54.126588 187.500000,0.000000 125.000000,0.000000"/>
<polygon fill="#8dd3c7" points="218.750000,54.126588 250.000000,0.000000 187.500000,0.000000"/>
<polygon fill="#ffffb3" points="187.500000,0.000000 156.250000,54.126588 218.750000,54.126588"/>
<polygon fill="#ffffb3" points="125.000000,0.000000 93.750000,54.126588 156.250000,54.126588"/>
<polygon fill="#ffffb3" points="156.250000,54.126588 125.000000,108.253175 187.500000,108.253175"/>
<polygon fill="#ffffb3" points="93.750000,54.126588 62.500000,108.253175 125.000000,108.253175"/>
<polygon fill="#bebada" points="125.000000,108.253175 156.250000,54.126588 93.750000,54.126588"/>
<polygon fill="#8dd3c7" points="375.000000,216.506351 406.250000,162.379763 343.750000,162.379763"/>
<polygon fill="#8dd3c7" points="343.750000,162.379763 375.000000,108.253175 312.500000,108.253175"/>
<polygon fill="#8dd3c7" points="406.250000,162.379763 437.500000,108.253175 375.000000,108.253175"/>
<polygon fill="#ffffb3" points="375.000000,108.253175 343.750000,162.379763 406.250000,162.379763"/>
<polygon fill="#8dd3c7" points="312.500000,108.253175 343.750000,54.126588 281.250000,54.126588"/>
<polygon fill="#8dd3c7" points="281.250000,54.126588 312.500000,0.000000 250.000000,0.000000"/>
<polygon fill="#8dd3c7" points="343.750000,54.126588 375.000000,0.000000 312.500000,0.000000"/>
<polygon fill="#ffffb3" points="312.500000,0.000000 281.250000,54.126588 343.750000,54.126588"/>
<polygon fill="#8dd3c7" points="437.500000,108.253175 468.750000,54.126588 406.250000,54.126588"/>
<polygon fill="#8dd3c7" points="406.250000,54.126588 437.500000,0.000000 375.000000,0.000000"/>
<polygon fill="#8dd3c7" points="468.750000,54.126588 500.000000,0.000000 437.500000,0.000000"/>
<polygon fill="#ffffb3" points="437.500000,0.000000 406.250000,54.126588 468.750000,54.126588"/>
<polygon fill="#ffffb3" points="375.000000,0.000000 343.750000,54.126588 406.250000,54.126588"/>
<polygon fill="#ffffb3" points="406.250000,54.126588 375.000000,108.253175 437.500000,108.253175"/>
<polygon fill="#ffffb3" points="343.750000,54.126588 312.500000,108.253175 375.000000,108.253175"/>
<polygon fill="#bebada" points="375.000000,108.253175 406.250000,54.126588 343.750000,54.126588"/>
<polygon fill="#ffffb3" points="250.000000,0.000000 218.750000,54.126588 281.250000,54.126588"/>
<polygon fill="#ffffb3" points="281.250000,54.126588 250.000000,108.253175 312.500000,108.253175"/>
<polygon fill="#ffffb3" points="218.750000,54.126588 187.500000,108.253175 250.000000,108.253175"/>
<polygon fill="#bebada" points="250.000000,108.253175 281.250000,54.126588 218.750000,54.126588"/>
<polygon fill="#ffffb3" points="312.500000,108.253175 281.250000,162.379763 343.750000,162.379763"/>
<polygon fill="#ffffb3" points="343.750000,162.379763 312.500000,216.506351 375.000000,216.506351"/>
<polygon fill="#ffffb3" points="281.250000,162.379763 250.000000,216.506351 312.500000,216.506351"/>
<polygon fill="#bebada" points="312.500000,216.506351 343.750000,162.379763 281.250000,162.379763"/>
<polygon fill="#ffffb3" points="187.500000,108.253175 156.250000,162.379763 218.750000,162.379763"/>
<polygon fill="#ffffb3" points="218.750000,162.379763 187.500000,216.506351 250.000000,216.506351"/>
<polygon fill="#ffffb3" points="156.250000,162.379763 125.000000,216.506351 187.500000,216.506351"/>
<polygon fill="#bebada" points="187.500000,216.506351 218.750000,162.379763 156.250000,162.379763"/>
<polygon fill="#bebada" points="250.000000,216.506351 281.250000,162.379763 218.750000,162.379763"/>
<polygon fill="#bebada" points="218.750000,162.379763 250.000000,108.253175 187.500000,108.253175"/>
<polygon fill="#bebada" points="281.250000,162.379763 312.500000,108.253175 250.000000,108.253175"/>
<polygon fill="#fb8072" points="250.000000,108.253175 218.750000,162.379763 281.250000,162.379763"/>
<polygon fill="#8dd3c7" points="750.000000,433.012702 781.250000,378.886114 718.750000,378.886114"/>
<polygon fill="#8dd3c7" points="718.750000,378.886114 750.000000,324.759526 687.500000,324.759526"/>
<polygon fill="#8dd3c7" points="781.250000,378.886114 812.500000,324.759526 750.000000,324.759526"/>
<polygon fill="#ffffb3" points="750.000000,324.759526 718.750000,378.886114 781.250000,378.886114"/>
<polygon fill="#8dd3c7" points="687.500000,324.759526 718.750000,270.632939 656.250000,270.632939"/>
<polygon fill="#8dd3c7" points="656.250000,270.632939 687.500000,216.506351 625.000000,216.506351"/>
<polygon fill="#8dd3c7" points="718.750000,270.632939 750.000000,216.506351 687.500000,216.506351"/>
<polygon fill="#ffffb3" points="687.500000,216.506351 656.250000,270.632939 718.750000,270.632939"/>
<polygon fill="#8dd3c7" points="812.500000,324.759526 843.750000,270.632939 781.250000,270.632939"/>
<polygon fill="#8dd3c7" points="781.250000,270.632939 812.500000,216.506351 750.000000,216.506351"/>
<polygon fill="#8dd3c7" points="843.750000,270.632939 875.000000,216.506351 812.500000,216.506351"/>
<polygon fill="#ffffb3" points="812.500000,216.506351 781.250000,270.632939 843.750000,270.632939"/>
<polygon fill="#ffffb3" points="750.000000,216.506351 718.750000,270.632939 781.250000,270.632939"/>
<polygon fill="#ffffb3" points="781.250000,270.632939 750.000000,324.759526 812.500000,324.759526"/>
<polygon fill="#ffffb3" points="718.750000,270.632939 687.500000,324.759526 750.000000,324.759526"/>
<polygon fill="#bebada" points="750.000000,324.759526 781.250000,270.632939 718.750000,270.632939"/>
<polygon fill="#8dd3c7" points="625.000000,216.506351 656.250000,162.379763 593.750000,162.379763"/>
<polygon fill="#8dd3c7" points="593.750000,162.379763 625.000000,108.253175 562.500000,108.253175"/>
<polygon fill="#8dd3c7" points="656.250000,162.379763 687.500000,108.253175 625.000000,108.253175"/>
<polygon fill="#ffffb3" points="625.000000,108.253175 593.750000,162.379763 656.250000,162.379763"/>
<polygon fill="#8dd3c7" points="562.500000,108.253175 593.750000,54.126588 531.250000,54.126588"/>
<polygon fill="#8dd3c7" points="531.250000,54.126588 562.500000,0.000000 500.000000,0.000000"/>
<polygon fill="#8dd3c7" points="593.750000,54.126588 625.000000,0.000000 562.500000,0.000000"/>
<polygon fill="#ffffb3" points="562.500000,0.000000 531.250000,54.126588 593.750000,54.126588"/>
<polygon fill="#8dd3c7" points="687.500000,108.253175 718.750000,54.126588 656.250000,54.126588"/>
<polygon fill="#8dd3c7" points="656.250000,54.126588 687.500000,0.000000 625.000000,0.000000"/>
<polygon fill="#8dd3c7" points="718.750000,54.126588 750.000000,0.000000 687.500000,0.000000"/>
<polygon fill="#ffffb3" points="687.500000,0.000000 656.250000,54.126588 718.750000,54.126588"/>
<polygon fill="#ffffb3" points="625.000000,0.000000 593.750000,54.126588 656.250000,54.126588"/>
<polygon fill="#ffffb3" points="656.250000,54.126588 625.000000,108.253175 687.500000,108.253175"/>
<polygon fill="#ffffb3" points="593.750000,54.126588 562.500000,108.253175 625.000000,108.253175"/>
<polygon fill="#bebada" points="625.000000,108.253175 656.250000,54.126588 593.750000,54.126588"/>
<polygon fill="#8dd3c7" points="875.000000,216.506351 906.250000,162.379763 843.750000,162.379763"/>
<polygon fill="#8dd3c7" points="843.750000,162.379763 875.000000,108.253175 812.500000,108.253175"/>
<polygon fill="#8dd3c7" points="906.250000,162.379763 937.500000,108.253175 875.000000,108.253175"/>
<polygon fill="#ffffb3" points="875.000000,108.253175 843.750000,162.379763 906.250000,162.379763"/>
<polygon fill="#8dd3c7" points="812.500000,108.253175 843.750000,54.126588 781.250000,54.126588"/>
<polygon fill="#8dd3c7" points="781.250000,54.126588 812.500000,0.000000 750.000000,0.000000"/>
<polygon fill="#8dd3c7" points="843.750000,54.126588 875.000000,0.000000 812.500000,0.000000"/>
<polygon fill="#ffffb3" points="812.500000,0.000000 781.250000,54.126588 843.750000,54.126588"/>
<polygon fill="#8dd3c7" points="937.500000,108.253175 968.750000,54.126588 906.250000,54.126588"/>
<polygon fill="#8dd3c7" points="906.250000,54.126588 937.500000,0.000000 875.000000,0.000000"/>
<polygon fill="#8dd3c7" points="968.750000,54.126588 1000.000000,0.000000 937.500000,0.000000"/>
<polygon fill="#ffffb3" points="937.500000,0.000000 906.250000,54.126588 968.750000,54.126588"/>
<polygon fill="#ffffb3" points="875.000000,0.000000 843.750000,54.126588 906.250000,54.126588"/>
<polygon fill="#ffffb3" points="906.250000,54.126588 875.000000,108.253175 937.500000,108.253175"/>
<polygon fill="#ffffb3" points="843.750000,54.126588 812.500000,108.253175 875.000000,108.253175"/>
<polygon fill="#bebada" points="875.000000,108.253175 906.250000,54.126588 843.750000,54.126588"/>
<polygon fill="#ffffb3" points="750.000000,0.000000 718.750000,54.126588 781.250000,54.126588"/>
<polygon fill="#ffffb3" points="781.250000,54.126588 750.000000,108.253175 812.500000,108.253175"/>
<polygon fill="#ffffb3" points="718.750000,54.126588 687.500000,108.253175 750.000000,108.253175"/>
<polygon fill="#bebada" points="750.000000,108.253175 781.250000,54.126588 718.750000,54.126588"/>
<polygon fill="#ffffb3" points="812.500000,108.253175 781.250000,162.379763 843.750000,162.379763"/>
<polygon fill="#ffffb3" points="843.750000,162.379763 812.500000,216.506351 875.000000,216.506351"/>
<polygon fill="#ffffb3" points="781.250000,162.379763 750.000000,216.506351 812.500000,216.506351"/>
<polygon fill="#bebada" points="812.500000,216.506351 843.750000,162.379763 781.250000,162.379763"/>
<polygon fill="#ffffb3" points="687.500000,108.253175 656.250000,162.379763 718.750000,162.379763"/>
<polygon fill="#ffffb3" points="718.750000,162.379763 687.500000,216.506351 750.000000,216.506351"/>
<polygon fill="#ffffb3" points="656.250000,162.379763 625.000000,216.506351 687.500000,216.506351"/>
<polygon fill="#bebada" points="687.500000,216.506351 718.750000,162.379763 656.250000,162.379763"/>
<polygon fill="#bebada" points="750.000000,216.506351 781.250000,162.379763 718.750000,162.379763"/>
<polygon fill="#bebada" points="718.750000,162.379763 750.000000,108.253175 687.500000,108.253175"/>
<polygon fill="#bebada" points="781.250000,162.379763 812.500000,108.253175 750.000000,108.253175"/>
<polygon fill="#fb8072" points="750.000000,108.253175 718.750000,162.379763 781.250000,162.379763"/>
<polygon fill="#ffffb3" points="500.000000,0.000000 468.750000,54.126588 531.250000,54.126588"/>
<polygon fill="#ffffb3" points="531.250000,54.126588 500.000000,108.253175 562.500000,108.253175"/>
<polygon fill="#ffffb3" points="468.750000,54.126588 437.500000,108.253175 500.000000,108.253175"/>
<polygon fill="#bebada" points="500.000000,108.253175 531.250000,54.126588 468.750000,54.126588"/>
<polygon fill="#ffffb3" points="562.500000,108.253175 531.250000,162.379763 593.750000,162.379763"/>
<polygon fill="#ffffb3" points="593.750000,162.379763 562.500000,216.506351 625.000000,216.506351"/>
<polygon fill="#ffffb3" points="531.250000,162.379763 500.000000,216.506351 562.500000,216.506351"/>
<polygon fill="#bebada" points="562.500000,216.506351 593.750000,162.379763 531.250000,162.379763"/>
<polygon fill="#ffffb3" points="437.500000,108.253175 406.250000,162.379763 468.750000,162.379763"/>
<polygon fill="#ffffb3" points="468.750000,162.379763 437.500000,216.506351 500.000000,216.506351"/>
<polygon fill="#ffffb3" points="406.250000,162.379763 375.000000,216.506351 437.500000,216.506351"/>
<polygon fill="#bebada" points="437.500000,216.506351 468.750000,162.379763 406.250000,162.379763"/>
<polygon fill="#bebada" points="500.000000,216.506351 531.250000,162.379763 468.750000,162.379763"/>
<polygon fill="#bebada" points="468.750000,162.379763 500.000000,108.253175 437.500000,108.253175"/>
<polygon fill="#bebada" points="531.250000,162.379763 562.500000,108.253175 500.000000,108.253175"/>
<polygon fill="#fb8072" points="500.000000,108.253175 468.750000,162.379763 531.250000,162.379763"/>
<polygon fill="#ffffb3" points="625.000000,216.506351 593.750000,270.632939 656.250000,270.632939"/>
<polygon fill="#ffffb3" points="656.250000,270.632939 625.000000,324.759526 687.500000,324.759526"/>
<polygon fill="#ffffb3" points="593.750000,270.632939 562.500000,324.759526 625.000000,324.759526"/>
<polygon fill="#bebada" points="625.000000,324.759526 656.250000,270.632939 593.750000,270.632939"/>
<polygon fill="#ffffb3" points="687.500000,324.759526 656.250000,378.886114 718.750000,378.886114"/>
<polygon fill="#ffffb3" points="718.750000,378.886114 687.500000,433.012702 750.000000,433.012702"/>
<polygon fill="#ffffb3" points="656.250000,378.886114 625.000000,433.012702 687.500000,433.012702"/>
<polygon fill="#bebada" points="687.500000,433.012702 718.750000,378.886114 656.250000,378.886114"/>
<polygon fill="#ffffb3" points="562.500000,324.759526 531.250000,378.886114 593.750000,378.886114"/>
<polygon fill="#ffffb3" points="593.750000,378.886114 562.500000,433.012702 625.000000,433.012702"/>
<polygon fill="#ffffb3" points="531.250000,378.886114 500.000000,433.012702 562.500000,433.012702"/>
<polygon fill="#bebada" points="562.500000,433.012702 593.750000,378.886114 531.250000,378.886114"/>
<polygon fill="#bebada" points="625.000000,433.012702 656.250000,378.886114 593.750000,378.886114"/>
<polygon fill="#bebada" points="593.750000,378.886114 625.000000,324.759526 562.500000,324.759526"/>
<polygon fill="#bebada" points="656.250000,378.886114 687.500000,324.759526 625.000000,324.759526"/>
<polygon fill="#fb8072" points="625.000000,324.759526 593.750000,378.886114 656.250000,378.886114"/>
<polygon fill="#ffffb3" points="375.000000,216.506351 343.750000,270.632939 406.250000,270.632939"/>
<polygon fill="#ffffb3" points="406.250000,270.632939 375.000000,324.759526 437.500000,324.759526"/>
<polygon fill="#ffffb3" points="343.750000,270.632939 312.500000,324.759526 375.000000,324.759526"/>
<polygon fill="#bebada" points="375.000000,324.759526 406.250000,270.632939 343.750000,270.632939"/>
<polygon fill="#ffffb3" points="437.500000,324.759526 406.250000,378.886114 468.750000,378.886114"/>
<polygon fill="#ffffb3" points="468.750000,378.886114 437.500000,433.012702 500.000000,433.012702"/>
<polygon fill="#ffffb3" points="406.250000,378.886114 375.000000,433.012702 437.500000,433.012702"/>
<polygon fill="#bebada" points="437.500000,433.012702 468.750000,378.886114 406.250000,378.886114"/>
<polygon fill="#ffffb3" points="312.500000,324.759526 281.250000,378.886114 343.750000,378.886114"/>
<polygon fill="#ffffb3" points="343.750000,378.886114 312.500000,433.012702 375.000000,433.012702"/>
<polygon fill="#ffffb3" points="281.250000,378.886114 250.000000,433.012702 312.500000,433.012702"/>
<polygon fill="#bebada" points="312.500000,433.012702 343.750000,378.886114 281.250000,378.886114"/>
<polygon fill="#bebada" points="375.000000,433.012702 406.250000,378.886114 343.750000,378.886114"/>
<polygon fill="#bebada" points="343.750000,378.886114 375.000000,324.759526 312.500000,324.759526"/>
<polygon fill="#bebada" points="406.250000,378.886114 437.500000,324.759526 375.000000,324.759526"/>
<polygon fill="#fb8072" points="375.000000,324.759526 343.750000,378.886114 406.250000,378.886114"/>
<polygon fill="#bebada" points="500.000000,433.012702 531.250000,378.886114 468.750000,378.886114"/>
<polygon fill="#bebada" points="468.750000,378.886114 500.000000,324.759526 437.500000,324.759526"/>
<polygon fill="#bebada" points="531.250000,378.886114 562.500000,324.759526 500.000000,324.759526"/>
<polygon fill="#fb8072" points="500.000000,324.759526 468.750000,378.886114 531.250000,378.886114"/>
<polygon fill="#bebada" points="437.500000,324.759526 468.750000,270.632939 406.250000,270.632939"/>
<polygon fill="#bebada" points="406.250000,270.632939 437.500000,216.506351 375.000000,216.506351"/>
<polygon fill="#bebada" points="468.750000,270.632939 500.000000,216.506351 437.500000,216.506351"/>
<polygon fill="#fb8072" points="437.500000,216.506351 406.250000,270.632939 468.750000,270.632939"/>
<polygon fill="#bebada" points="562.500000,324.759526 593.750000,270.632939 531.250000,270.632939"/>
<polygon fill="#bebada" points="531.250000,270.632939 562.500000,216.506351 500.000000,216.506351"/>
<polygon fill="#bebada" points="593.750000,270.632939 625.000000,216.506351 562.500000,216.506351"/>
<polygon fill="#fb8072" points="562.500000,216.506351 531.250000,270.632939 593.750000,270.632939"/>
<polygon fill="#fb8072" points="500.000000,216.506351 468.750000,270.632939 531.250000,270.632939"/>
<polygon fill="#fb8072" points="531.250000,270.632939 500.000000,324.759526 562.500000,324.759526"/>
<polygon fill="#fb8072" points="468.750000,270.632939 437.500000,324.759526 500.000000,324.759526"/>
<polygon fill="#80b1d3" points="500.000000,324.759526 531.250000,270.632939 468.750000,270.632939"/>
</svg>