<svg version="1.1" id = "Layer_1" xmlns = "http://www.w3.org/2000/svg" xmlns:xlink = "http://www.w3.org/1999/xlink" x="0px" y="0px" width="1000px" height="1000px" viewBox="0 0 1000 1000" enable-background="new 0 0 1000 1000" xml:space="preserve">
<polygon fill="#8dd3c7" points="500.000000,866.025404 625.000000,649.519053 375.000000,649.519053"/>
<polygon fill="#8dd3c7" points="375.000000,649.519053 500.000000,433.012702 250.000000,433.012702"/>
<polygon fill="#8dd3c7" points="625.000000,649.519053 750.000000,433.012702 500.000000,433.012702"/>
<polygon fill="#ffffb3" points="500.000000,433.012702 375.000000,649.519053 625.000000,649.519053"/>
<polygon fill="#8dd3c7" points="250.000000,433.012702 375.000000,216.506351 125.000000,216.506351"/>
<polygon fill="#8dd3c7" points="125.000000,216.506351 250.000000,0.000000 0.000000,0.000000"/>
<polygon fill="#8dd3c7" points="375.000000,216.506351 500.000000,0.000000 250.000000,0.000000"/>
<polygon fill="#ffffb3" points="250.000000,0.000000 125.000000,216.506351 375.000000,216.506351"/>
<polygon fill="#8dd3c7" points="750.000000,433.012702 875.000000,216.506351 625.000000,216.506351"/>
<polygon fill="#8dd3c7" points="625.000000,216.506351 750.000000,0.000000 500.000000,0.000000"/>
<polygon fill="#8dd3c7" points="875.000000,216.506351 1000.000000,0.000000 750.000000,0.000000"/>
<polygon fill="#ffffb3" points="750.000000,0.000000 625.000000,216.506351 875.000000,216.506351"/>
<polygon fill="#ffffb3" points="500.000000,0.000000 375.000000,216.506351 625.000000,216.506351"/>
<polygon fill="#ffffb3" points="625.000000,216.506351 500.000000,433.012702 750.000000,433.012702"/>
<polygon fill="#ffffb3" points="375.000000,216.506351 250.000000,433.012702 500.000000,433.012702"/>
<polygon fill="#bebada" points="500.000000,433.012702 625.000000,216.506351 375.000000,216.506351"/>
</svg>